# xmcd
#
# Track frame offsets:
#	150
#	17965
#	33793
#	48866
#	65474
#	81767
#	98941
#	116184
#	132772
#	150817
#
# Disc length: 2267 seconds
#
# Revision: 0
# Processed by: cddbd v1.5.2PL0 Copyright (c) Steve Scherf et al.
# Submitted via: EasyCDDAExtractor 10.2.0.1
#
DISCID=7308d90a
DTITLE=ΒΑΡΔΗΣ - ΝΑ ΞΕΚΙΝΗΣΟΥΜΕ ΑΠ' ΤΗΝ ΑΡΧΗ
DYEAR=2007
DGENRE=Pop
TTITLE0=ΔΥΟ ΤΣΙΓΑΡΑ
TTITLE1=ΝΑ ΞΕΚΙΝΗΣΟΥΜΕ ΑΠ' ΤΗΝ ΑΡΧΗ
TTITLE2=ΣΟΥΛΤΑΝΑ
TTITLE3=ΠΑΕΙ ΚΑΙΡΟΣ
TTITLE4=ΑΛΛΗ ΜΙΑ ΜΕΡΑ
TTITLE5=ΕΙΠΑ ΚΡΥΦΑ ΝΑ ΦΥΓΩ
TTITLE6=ΕΧΩ ΑΝΑΓΚΗ
TTITLE7=ΤΕΛΕΥΤΑΙΑ ΦΟΡΑ
TTITLE8=ΕΦΗ
TTITLE9=ΟΛΑ ΓΙΑ ΣΕΝΑ
EXTD=
EXTT0=
EXTT1=
EXTT2=
EXTT3=
EXTT4=
EXTT5=
EXTT6=
EXTT7=
EXTT8=
EXTT9=
PLAYORDER=
